<svg id="Layer_1" data-name="Layer 1" xmlns="http://www.w3.org/2000/svg" xmlns:xlink="http://www.w3.org/1999/xlink" viewBox="0 0 344.74 241.78"><defs><style>.cls-1{fill:#540c00;stroke-width:3px;stroke:url(#linear-gradient);}.cls-1,.cls-2{stroke-miterlimit:10;}.cls-2{fill:#2b3338;stroke-width:5px;stroke:url(#linear-gradient-2);}</style><linearGradient id="linear-gradient" x1="99.97" y1="209.41" x2="382.53" y2="209.41" gradientUnits="userSpaceOnUse"><stop offset="0" stop-color="#fff"/><stop offset="0.11" stop-color="#ff8f6a"/><stop offset="1" stop-color="#ff3f45"/></linearGradient><linearGradient id="linear-gradient-2" x1="98.88" y1="211.02" x2="443.62" y2="211.02" gradientUnits="userSpaceOnUse"><stop offset="0" stop-color="#3fdcff"/><stop offset="0.33" stop-color="#91b9a6"/><stop offset="0.5" stop-color="#a9e585"/><stop offset="0.67" stop-color="#ffac6a"/><stop offset="1" stop-color="#ff3f45"/></linearGradient></defs><title>dstr</title><g id="Layer0_0_FILL" data-name="Layer0 0 FILL"><path class="cls-1" d="M133,96.5l-31.4,73.55,31.4,73.5L164.4,170,133,96.5m108.5,229L272.9,252l-31.4-73.5-31.4,73.55,31.4,73.5M380.9,170,349.5,96.5l-31.4,73.55,31.4,73.5Z" transform="translate(-98.88 -90.13)"/></g><path id="Layer0_0_1_STROKES" data-name="Layer0 0 1 STROKES" class="cls-2" d="M409.5,96.5,440.9,170l-31.4,73.55M389.5,96.5,420.9,170l-31.4,73.55m-71.4-73.5L349.5,96.5,380.9,170l-31.4,73.55ZM369.5,96.5,400.9,170l-31.4,73.55M193,96.5,224.4,170,193,243.55M173,96.5,204.4,170,173,243.55m-71.4-73.5L133,96.5,164.4,170,133,243.55Zm108.5,82,31.4-73.55L272.9,252l-31.4,73.55Zm51.4-73.55L292.9,252l-31.4,73.55m20-147L312.9,252l-31.4,73.55M153,96.5,184.4,170,153,243.55M301.5,178.5,332.9,252l-31.4,73.55" transform="translate(-98.88 -90.13)"/></svg>